# Blender 4.2.3 LTS
# www.blender.org
mtllib head_minty.mtl
o head_minty
v 0.347761 0.894225 -0.057168
v 0.708708 1.235952 -0.115836
v 0.328263 0.926458 0.172321
v 0.286385 0.970766 -0.416378
v 0.318661 1.290523 -0.496140
v 0.535060 1.291612 -0.186852
v 0.348258 1.242414 0.291306
v 0.222271 0.855382 0.061414
v 0.322279 1.632522 -0.503786
v 0.513886 1.634687 -0.137694
v 0.326680 1.747593 0.247716
v 0.142452 1.842361 -0.329583
v 0.646670 1.831990 -0.097811
v 0.104877 1.869278 0.077707
v 0.392915 0.945078 -0.266283
v 0.494180 1.291067 -0.320345
v 0.455563 1.633604 -0.342772
v 0.225254 0.994334 0.735571
v 0.282930 1.154376 0.762217
v 0.283795 2.003150 -0.287016
v -0.347761 0.894225 -0.057168
v -0.708708 1.235952 -0.115836
v -0.328263 0.926458 0.172321
v -0.286385 0.970766 -0.416378
v -0.318661 1.290523 -0.496140
v -0.535060 1.291612 -0.186852
v -0.348258 1.242414 0.291306
v -0.222640 0.860249 0.072448
v -0.322279 1.632522 -0.503786
v -0.513886 1.634687 -0.137694
v -0.142452 1.842361 -0.329583
v -0.646670 1.831990 -0.097811
v -0.104877 1.869278 0.077707
v -0.326680 1.747593 0.247715
v -0.392915 0.945078 -0.266283
v -0.494179 1.291067 -0.320345
v -0.455563 1.633604 -0.342772
v -0.225254 0.994334 0.735571
v -0.282930 1.154376 0.762217
v 0.687257 1.994851 -0.101558
v -0.000000 0.856445 0.113417
v 0.000000 0.863607 -0.186488
v 0.000000 0.981974 -0.491086
v -0.000000 0.874233 0.430609
v 0.000000 1.311691 -0.585226
v -0.000000 1.231255 0.566011
v 0.000000 1.630089 -0.565450
v -0.000000 1.798937 0.377909
v 0.000000 1.845555 -0.334286
v 0.000000 1.900981 -0.012690
v -0.000000 0.993446 0.812394
v -0.000000 1.186791 0.868607
v 0.253728 2.024688 0.038887
v -0.283795 2.003150 -0.287016
v -0.687257 1.994851 -0.101558
v -0.253728 2.024688 0.038887
v 0.618819 2.287611 -0.101558
v -0.618819 2.287611 -0.101558
vn 0.8473 0.1194 0.5175
vn 0.7144 0.3399 0.6117
vn 0.6085 -0.7287 0.3141
vn 0.5281 -0.6440 0.5535
vn 0.9625 0.2451 -0.1159
vn 0.4215 -0.9066 -0.0201
vn -0.7719 0.2646 -0.5780
vn 0.8686 -0.1122 -0.4827
vn 0.9320 0.2431 -0.2688
vn 0.5422 -0.7599 -0.3586
vn 0.0096 -0.9929 -0.1183
vn 0.0007 -0.6584 -0.7527
vn 0.3614 -0.6935 -0.6233
vn 0.9592 -0.2597 0.1119
vn 0.6446 0.2081 0.7357
vn -0.0001 0.8546 0.5192
vn 0.0007 0.6734 0.7393
vn -0.0000 -0.1230 -0.9924
vn 0.5051 -0.1318 -0.8529
vn -0.0000 -0.9857 0.1686
vn -0.0006 -0.9999 -0.0150
vn -0.0000 0.4052 -0.9142
vn 0.4979 0.3931 -0.7731
vn 0.7667 0.2745 -0.5804
vn -0.0644 0.8921 0.4472
vn -0.0288 0.7617 -0.6473
vn -0.0000 0.9996 0.0277
vn -0.0000 0.8971 -0.4417
vn 0.9783 -0.1395 0.1531
vn 0.9894 0.0052 0.1450
vn -0.1171 0.6788 0.7249
vn 0.0003 0.4895 0.8720
vn -0.0001 -0.6542 0.7564
vn -0.9798 -0.1202 0.1598
vn 0.1408 0.9383 0.3160
vn 0.5271 0.6010 0.6008
vn -0.9923 -0.1132 0.0495
vn -0.2912 0.5863 -0.7560
vn -0.5317 -0.6416 0.5529
vn -0.7144 0.3399 0.6117
vn -0.6080 -0.7298 0.3125
vn -0.8472 0.1198 0.5176
vn 0.9717 0.2225 0.0794
vn -0.4209 -0.9070 -0.0176
vn -0.9625 0.2453 -0.1159
vn -0.9320 0.2430 -0.2688
vn -0.5423 -0.7598 -0.3588
vn -0.8686 -0.1118 -0.4827
vn -0.3560 -0.6955 -0.6241
vn -0.9592 -0.2594 0.1121
vn -0.7319 0.2927 0.6153
vn -0.5051 -0.1318 -0.8529
vn -0.4979 0.3931 -0.7731
vn -0.7668 0.2742 -0.5804
vn 0.0288 0.7617 -0.6473
vn 0.1097 0.5063 -0.8554
vn -0.4845 0.8742 0.0337
vn 0.4845 0.8742 0.0337
vt 0.323963 0.189502
vt 0.375260 0.083403
vt 0.435337 0.235669
vt 0.411633 0.076978
vt 0.295614 0.384955
vt 0.462645 0.314986
vt 0.487763 0.259891
vt 0.722161 0.893448
vt 0.698480 0.932759
vt 0.619894 0.842311
vt 0.655390 0.980549
vt 0.552541 0.740515
vt 0.648239 0.711089
vt 0.552541 0.854580
vt 0.651485 0.799560
vt 0.235901 0.593338
vt 0.276262 0.437540
vt 0.295614 0.606146
vt 0.132790 0.560011
vt 0.118596 0.422459
vt 0.295614 0.300427
vt 0.122274 0.316623
vt 0.758496 0.706657
vt 0.748332 0.812869
vt 0.514078 0.111737
vt 0.552026 0.216580
vt 0.780319 0.490426
vt 0.683912 0.485052
vt 0.780319 0.386049
vt 0.671558 0.384955
vt 0.623029 0.499172
vt 0.557876 0.510644
vt 0.595227 0.395660
vt 0.552541 0.403040
vt 0.684108 0.706657
vt 0.710374 0.577595
vt 0.726465 0.689660
vt 0.754813 0.588708
vt 0.036027 0.360495
vt 0.000000 0.328047
vt 0.956417 0.458881
vt 0.828509 0.384955
vt 0.965330 0.384955
vt 0.780319 0.465802
vt 0.967382 0.509548
vt 0.826474 0.515086
vt 0.349916 0.000000
vt 0.425546 0.009238
vt 0.295614 0.067297
vt 0.306579 0.842988
vt 0.482676 0.849908
vt 0.436522 0.899192
vt 0.295614 0.893655
vt 0.891958 0.891584
vt 0.908547 0.720760
vt 0.976920 0.811964
vt 0.978692 0.746058
vt 0.848979 0.839888
vt 0.855463 0.706657
vt 0.436607 0.461667
vt 0.472950 0.468193
vt 0.412461 0.620459
vt 0.523891 0.574275
vt 0.361438 0.641455
vt 0.385735 0.699803
vt 0.552541 0.769062
vt 0.102830 0.606146
vt 0.145927 0.653929
vt 0.067349 0.744382
vt 0.169613 0.693238
vt 0.000000 0.846170
vt 0.000000 0.732115
vt 0.095691 0.875603
vt 0.098940 0.787132
vt 0.251198 0.169273
vt 0.182675 0.023648
vt 0.238982 -0.000000
vt 0.087523 0.075499
vt 0.099054 0.213299
vt 0.195792 0.773822
vt 0.205954 0.880044
vt 0.295614 0.600535
vt 0.334162 0.496024
vt 0.660787 0.000000
vt 0.648433 0.100097
vt 0.552026 0.001094
vt 0.552026 0.105471
vt 0.779804 0.018085
vt 0.774469 0.125689
vt 0.737118 0.010704
vt 0.709316 0.114217
vt 0.577532 0.203753
vt 0.621971 0.192640
vt 0.605881 0.304705
vt 0.648238 0.321702
vt 0.029393 0.289486
vt 0.434487 0.769062
vt 0.297666 0.769062
vt 0.913266 0.055476
vt 0.929855 0.226301
vt 0.876772 0.240404
vt 0.870287 0.107173
vt 0.422927 0.393954
vt 0.498498 0.384955
vt 0.552541 0.452313
vt 0.775614 0.947061
vt 0.758496 0.880466
vt 1.000000 0.201003
vt 0.998228 0.135097
vt 0.796923 0.000000
vt 0.779804 0.066595
vt 0.205954 0.691806
vt 0.282619 0.606146
vt 0.205954 0.806763
vt 0.294682 0.725713
vt 0.779804 0.219072
vt 0.758496 0.727989
vt 0.944935 0.599630
vt 0.318061 0.983737
s 1
usemtl 
f 7/1/1 19/2/2 3/3/3
f 19/2/2 18/4/4 3/3/3
f 2/5/5 3/3/3 1/6/6
f 3/3/3 8/7/7 1/6/6
f 16/8/8 6/9/9 15/10/10
f 6/9/9 2/11/5 15/10/10
f 42/12/11 43/13/12 1/14/6
f 4/15/13 15/10/10 43/13/12
f 2/11/5 1/14/6 15/10/10
f 15/10/10 1/14/6 43/13/12
f 6/16/9 7/17/1 2/18/5
f 7/1/1 3/3/3 2/5/5
f 6/16/9 10/19/14 7/17/1
f 11/20/15 7/17/1 10/19/14
f 7/17/1 11/20/15 46/21/16
f 48/22/17 46/21/16 11/20/15
f 45/23/18 5/24/19 43/13/12
f 5/24/19 4/15/13 43/13/12
f 44/25/20 41/26/21 3/3/3
f 41/26/21 8/7/7 3/3/3
f 47/27/22 9/28/23 45/29/18
f 9/28/23 5/30/19 45/29/18
f 17/31/24 10/32/14 16/33/8
f 10/32/14 6/34/9 16/33/8
f 14/35/25 12/36/26 50/37/27
f 12/36/26 49/38/28 50/37/27
f 14/39/25 48/22/17 11/20/15
f 50/40/27 48/22/17 14/39/25
f 13/41/29 11/42/15 10/43/14
f 14/44/25 11/42/15 13/41/29
f 14/44/25 13/41/29 40/45/30 53/46/31
f 49/38/28 12/36/26 47/27/22
f 12/36/26 9/28/23 47/27/22
f 9/28/23 17/31/24 5/30/19
f 17/31/24 16/33/8 5/30/19
f 5/24/19 16/8/8 4/15/13
f 16/8/8 15/10/10 4/15/13
f 19/2/2 52/47/32 18/4/4
f 52/47/32 51/48/33 18/4/4
f 3/3/3 18/4/4 44/25/20
f 18/4/4 51/48/33 44/25/20
f 46/49/16 52/47/32 7/1/1
f 52/47/32 19/2/2 7/1/1
f 32/50/34 33/51/35 56/52/36 55/53/37
f 12/54/26 13/55/29 17/56/24
f 13/55/29 10/57/14 17/56/24
f 17/31/24 9/28/23 12/36/26
f 13/55/29 12/54/26 20/58/38 40/59/30
f 38/60/39 39/61/40 23/62/41
f 39/61/40 27/63/42 23/62/41
f 28/64/43 23/62/41 21/65/44
f 23/62/41 22/66/45 21/65/44
f 22/67/45 26/68/46 35/69/47
f 26/68/46 36/70/48 35/69/47
f 42/71/11 21/72/44 43/73/12
f 22/67/45 35/69/47 21/72/44
f 24/74/49 43/73/12 35/69/47
f 35/69/47 43/73/12 21/72/44
f 23/62/41 27/63/42 22/66/45
f 27/75/42 26/76/46 22/77/45
f 26/76/46 27/75/42 30/78/50
f 34/79/51 30/78/50 27/75/42
f 27/75/42 46/21/16 34/79/51
f 48/22/17 34/79/51 46/21/16
f 24/74/49 25/80/52 43/73/12
f 25/80/52 45/81/18 43/73/12
f 28/64/43 41/82/21 23/62/41
f 41/82/21 44/83/20 23/62/41
f 25/84/52 29/85/53 45/86/18
f 29/85/53 47/87/22 45/86/18
f 26/88/46 30/89/50 36/90/48
f 30/89/50 37/91/54 36/90/48
f 49/92/28 31/93/55 50/94/27
f 31/93/55 33/95/35 50/94/27
f 48/22/17 33/96/35 34/79/51
f 50/40/27 33/96/35 48/22/17
f 34/97/51 32/50/34 30/98/50
f 34/97/51 33/51/35 32/50/34
f 31/99/55 32/100/34 55/101/37 54/102/56
f 29/85/53 31/93/55 47/87/22
f 31/93/55 49/92/28 47/87/22
f 36/90/48 37/91/54 25/84/52
f 37/91/54 29/85/53 25/84/52
f 35/69/47 36/70/48 24/74/49
f 36/70/48 25/80/52 24/74/49
f 51/103/33 52/104/32 38/60/39
f 52/104/32 39/61/40 38/60/39
f 51/103/33 38/60/39 44/83/20
f 38/60/39 23/62/41 44/83/20
f 39/61/40 52/104/32 27/63/42
f 52/104/32 46/105/16 27/63/42
f 12/54/26 14/106/25 53/107/31 20/58/38
f 30/108/50 32/100/34 37/109/54
f 32/100/34 31/99/55 37/109/54
f 29/85/53 37/91/54 31/93/55
f 33/110/35 31/99/55 54/102/56 56/111/36
f 28/64/43 21/65/44 41/82/21
f 42/112/11 1/113/6 21/114/44
f 8/7/7 41/26/21 1/6/6
f 1/113/6 41/115/21 21/114/44
f 56/111/36 54/102/56 58/116/57
f 53/107/31 57/117/58 20/58/38
f 53/46/31 40/45/30 57/118/58
f 40/59/30 20/58/38 57/117/58
f 55/101/37 58/116/57 54/102/56
f 56/52/36 58/119/57 55/53/37
